<?xml version="1.0" encoding="utf-8"?>
<svg version="1.1" id="Layer_1" xmlns="http://www.w3.org/2000/svg" xmlns:xlink="http://www.w3.org/1999/xlink" x="0px" y="0px"
     viewBox="0 0 81 11" style="enable-background:new 0 0 81 11;" xml:space="preserve">
<style type="text/css">
	.st0{fill:#ee3965;}
</style>
    <g>
	<path class="st0" d="M79.1,7.7c-0.5,0.5-1,1-2.1,1.1c-1.1,0.1-1.8-0.7-2-1l5.5-1.1v0c0-2.1-1.7-3.8-3.8-3.8s-3.8,1.7-3.8,3.8
		c0,2.1,1.7,3.8,3.8,3.8c1.3,0,2.5-0.7,3.2-1.8L79.1,7.7z M75.3,5.1c0.4-0.4,0.8-0.6,1.4-0.6c0.5,0,0.9,0.1,1.2,0.4
		c0.2,0.2,0.4,0.4,0.5,0.7l-3.6,0.8C74.9,5.8,75,5.4,75.3,5.1"/>
        <path class="st0" d="M14.6,7.7c-0.5,0.5-1,1-2.1,1.1c-1.1,0.1-1.8-0.7-2-1L16,6.7v0c0-2.1-1.7-3.8-3.8-3.8S8.5,4.6,8.5,6.7
		c0,2.1,1.7,3.8,3.8,3.8c1.3,0,2.5-0.7,3.2-1.8L14.6,7.7z M10.9,5.1c0.3-0.4,0.8-0.6,1.4-0.6c0.5,0,0.9,0.1,1.2,0.4
		c0.2,0.2,0.4,0.4,0.5,0.7l-3.6,0.8C10.4,5.8,10.6,5.4,10.9,5.1"/>
        <path class="st0" d="M41.1,2.9c-2.1,0-3.8,1.7-3.8,3.8c0,2.1,1.7,3.8,3.8,3.8c2.1,0,3.8-1.7,3.8-3.8C44.9,4.6,43.2,2.9,41.1,2.9
		 M41.1,8.7c-1.1,0-2-0.9-2-2c0-1.1,0.9-2,2-2c1.1,0,2,0.9,2,2C43.2,7.8,42.3,8.7,41.1,8.7"/>
        <path class="st0" d="M4.5,3.1c-0.5,0-1,0.1-1.4,0.3C2.8,3.4,2.5,3.6,2.2,3.9V3.1H0.5v7.1h1.8V6.6c0-0.6,0.2-1.1,0.5-1.5
		c0.3-0.3,0.8-0.5,1.4-0.5c0.5,0,0.9,0.1,1.2,0.4c0.3,0.3,0.4,0.7,0.4,1.3v3.8h1.8V6.2c0-1-0.3-1.8-0.8-2.3C6.1,3.3,5.4,3.1,4.5,3.1
		"/>
        <path class="st0" d="M33.4,3.1c-0.5,0-0.9,0.1-1.3,0.2c-0.3,0.1-0.6,0.3-0.9,0.5V0.4h-1.8v9.8h1.8V6.6c0-0.6,0.2-1.1,0.5-1.5
		c0.3-0.3,0.8-0.5,1.4-0.5c0.5,0,0.9,0.1,1.2,0.4c0.3,0.3,0.4,0.7,0.4,1.3v3.8h1.8V6.2c0-1-0.3-1.8-0.8-2.3
		C35,3.3,34.3,3.1,33.4,3.1"/>
        <path class="st0" d="M55,6.9c0,0.6-0.1,1.1-0.3,1.4c-0.2,0.3-0.6,0.4-1,0.4c-0.5,0-0.8-0.1-1-0.4c-0.2-0.3-0.3-0.8-0.3-1.4V3.1
		h-1.8v3.8c0,0.6-0.1,1.1-0.3,1.4c-0.2,0.3-0.6,0.4-1,0.4c-0.5,0-0.8-0.1-1-0.4c-0.2-0.3-0.3-0.8-0.3-1.4V3.1h-1.8V7
		c0,1,0.3,1.8,0.8,2.4c0.5,0.6,1.3,0.9,2.3,0.9c0.5,0,1-0.1,1.4-0.3c0.4-0.2,0.7-0.4,0.9-0.7c0.5,0.7,1.3,1,2.3,1
		c1,0,1.8-0.3,2.3-0.9c0.5-0.6,0.8-1.4,0.8-2.4V3.1H55V6.9z"/>
        <path class="st0" d="M71.2,3.8c-0.5-0.5-1.2-0.8-2.1-0.8c-0.6,0-1.1,0.1-1.5,0.3c-0.4,0.2-0.8,0.5-1.1,0.8
		c-0.2-0.3-0.5-0.6-0.9-0.8c-0.4-0.2-0.9-0.3-1.4-0.3c-0.5,0-0.9,0.1-1.3,0.3c-0.3,0.1-0.6,0.3-0.9,0.6V3.1h-1.7v7.1H62V6.6
		c0-0.6,0.2-1.1,0.5-1.5c0.3-0.3,0.7-0.5,1.3-0.5c0.5,0,0.8,0.1,1.1,0.4c0.3,0.3,0.4,0.7,0.4,1.3v3.8H67V6.6c0-0.6,0.2-1.1,0.5-1.5
		c0.3-0.3,0.7-0.5,1.2-0.5c0.5,0,0.8,0.1,1.1,0.4c0.3,0.3,0.4,0.7,0.4,1.3v3.8H72V6.2C72,5.1,71.7,4.4,71.2,3.8"/>
        <path class="st0" d="M59.1,9.4c0,0.5-0.4,0.9-0.9,0.9c-0.5,0-0.9-0.4-0.9-0.9s0.4-0.9,0.9-0.9C58.7,8.5,59.1,8.9,59.1,9.4"/>
        <path class="st0" d="M18.8,7.3V4.8h2V3.1h-2V1.5H17v6.1c0,1.8,1,2.8,2.9,2.8h1V8.7h-0.8C19.3,8.7,18.8,8.2,18.8,7.3"/>
        <path class="st0" d="M25.4,5.9c-0.9-0.1-1.6-0.3-1.6-0.7c0-0.4,0.5-0.8,1.4-0.8c0.9,0,1.4,0.4,1.4,0.9v0.2h1.8V5.4
		c0-1.5-1.3-2.5-3.2-2.5c-1.9,0-3.2,1-3.2,2.4c0,1.6,1.6,1.9,3,2.1c0.9,0.2,1.7,0.3,1.7,0.8C26.7,8.8,26,9,25.3,9
		c-1,0-1.6-0.4-1.6-1V7.8h-1.8V8c0,1.5,1.3,2.5,3.3,2.5c1.6,0,3.2-0.7,3.2-2.4C28.4,6.5,26.7,6.2,25.4,5.9"/>
</g>
</svg>
